<svg xmlns="http://www.w3.org/2000/svg" width="86" height="90"><path d="M29.73 33.282a28.359 28.359 0 1028.3 28.359 28.326 28.326 0 00-28.3-28.359zm2.31 41.9v1.6a2.31 2.31 0 11-4.62 0v-1.617a8.052 8.052 0 01-3.57-2.2 2.308 2.308 0 113.35-3.177 3.441 3.441 0 002.51 1.083 3.472 3.472 0 000-6.943 8.1 8.1 0 01-2.31-15.851v-1.6a2.31 2.31 0 114.62 0v1.617a8.084 8.084 0 013.58 2.2 2.312 2.312 0 01-3.36 3.177 3.465 3.465 0 10-2.51 5.86 8.1 8.1 0 012.31 15.847zM20.53 0A20.584 20.584 0 008.76 37.433a31.811 31.811 0 0120.97-7.843c.81 0 1.61.037 2.4.092a28.81 28.81 0 016.89-18.055A20.521 20.521 0 0020.53 0zm3.81 16.567a1.507 1.507 0 010 3.013h-3.33v1.487h3.33a1.506 1.506 0 010 3.012h-3.33v1.837a1.505 1.505 0 11-3.01 0v-1.837h-3.34a1.506 1.506 0 010-3.012H18V19.58h-3.34a1.507 1.507 0 010-3.013h1.82l-3.3-5.161a1.515 1.515 0 012.55-1.635l3.79 5.915 3.79-5.915a1.515 1.515 0 012.55 1.635l-3.32 5.161h1.8zM60.91 5.216a25.109 25.109 0 00-25.09 24.961 32.108 32.108 0 0125.31 25.329 25.146 25.146 0 00-.22-50.29zm8.91 15.19a1.525 1.525 0 01-1.98.863 6.552 6.552 0 00-2.37-.441 7.015 7.015 0 00-6.08 3.784h6.47a1.525 1.525 0 010 3.049H58.4a13.973 13.973 0 000 2.241h7.47a1.525 1.525 0 110 3.049H59.4a7.066 7.066 0 006.09 3.784 6.277 6.277 0 001.94-.294 1.54 1.54 0 11.92 2.939 9.513 9.513 0 01-2.86.441 10.273 10.273 0 01-9.44-6.833h-2.6a1.525 1.525 0 010-3.049h1.89a20.94 20.94 0 010-2.241h-1.89a1.525 1.525 0 010-3.049h2.6a10.252 10.252 0 019.44-6.833 9.3 9.3 0 013.46.661 1.482 1.482 0 01.87 1.929z" fill="#e1c178" fill-rule="evenodd"/></svg>